<svg width="120" height="23" fill="none" xmlns="http://www.w3.org/2000/svg"><path d="M11.202 9.34h4.966c1.016.037 1.636.3 1.862.79.188.357.282.884.282 1.58v6.207c0 .602-.263 1.176-.79 1.721-1.58 1.637-3.95 2.455-7.11 2.455-2.803 0-5.24-1.053-7.308-3.16C1.034 16.807 0 14.249 0 11.258c0-2.99 1.053-5.483 3.16-7.477C5.267 1.768 7.75.761 10.61.761c2.219 0 4.316.734 6.291 2.202.508.376.762.8.762 1.27 0 .45-.216.978-.649 1.58-.733.996-1.401 1.495-2.003 1.495-.357 0-.931-.254-1.721-.762-.79-.527-1.73-.79-2.822-.79-1.43 0-2.7.508-3.809 1.524-1.11.997-1.665 2.313-1.665 3.95 0 1.618.565 3 1.693 4.148 1.129 1.128 2.408 1.693 3.838 1.693 1.034 0 1.965-.17 2.793-.508v-3.076h-2.23c-.582 0-.996-.075-1.24-.225a1.053 1.053 0 01-.48-.65c-.075-.3-.113-.695-.113-1.184 0-.508.037-.913.113-1.214.094-.3.254-.508.48-.62.338-.17.79-.254 1.354-.254zM34.9 12.613c0 1.147-.292 2.003-.875 2.567-.564.546-1.195.819-1.89.819h-6.688c0 .526.31.968.931 1.326.621.357 1.242.536 1.863.536 1.09 0 1.947-.113 2.567-.339l.31-.113c.452-.207.828-.31 1.13-.31.601 0 1.119.423 1.551 1.27.245.508.367.94.367 1.298 0 1.674-2.003 2.51-6.01 2.51-1.392 0-2.634-.234-3.725-.704-1.072-.49-1.909-1.13-2.51-1.92-1.186-1.523-1.779-3.225-1.779-5.106 0-2.37.762-4.261 2.286-5.672 1.543-1.43 3.461-2.144 5.756-2.144 2.615 0 4.534.922 5.756 2.765.64.978.96 2.05.96 3.217zm-5.954.818c.715 0 1.072-.301 1.072-.903 0-.433-.17-.78-.508-1.044-.32-.263-.79-.395-1.41-.395-.603 0-1.204.254-1.806.762-.602.489-.903 1.015-.903 1.58h3.555zm16.153-1.496l-1.834-.113v3.894c0 .508.075.875.226 1.1.169.227.47.34.903.34.451 0 .79.018 1.015.056.245.019.499.103.762.254.433.244.65.874.65 1.89 0 1.185-.264 1.91-.79 2.173a3.005 3.005 0 01-.763.254c-.207.019-.517.028-.93.028-1.957 0-3.443-.442-4.459-1.326-1.016-.884-1.524-2.38-1.524-4.486v-4.177a7.42 7.42 0 01-1.156.085c-.414 0-.762-.16-1.044-.48-.264-.32-.395-.865-.395-1.636 0-.771.047-1.326.14-1.665.095-.357.226-.611.396-.762.3-.244.677-.366 1.128-.366l.931.112V4.204c0-.432.01-.752.029-.96.037-.206.131-.432.282-.676.244-.47.969-.706 2.172-.706 1.28 0 2.041.348 2.286 1.044.094.301.141.78.141 1.44V7.11a22.55 22.55 0 011.862-.112c.433 0 .753.018.96.056.225.019.48.103.761.254.49.245.734.969.734 2.173 0 1.185-.254 1.909-.762 2.172a3.01 3.01 0 01-.762.254c-.206.019-.526.028-.959.028zM73.114 1.242c1.26.451 1.89 1.053 1.89 1.805 0 .245-.112.706-.338 1.383l-5.417 15.66a2.9 2.9 0 01-.198.48c-.094.188-.348.442-.762.761-.395.301-.875.452-1.439.452-.545 0-1.025-.15-1.439-.452-.395-.32-.658-.63-.79-.93l-3.301-9.735-3.189 9.424a2.438 2.438 0 01-.254.48 3.3 3.3 0 01-.451.564c-.433.433-.95.649-1.552.649-.602 0-1.1-.141-1.495-.423-.377-.283-.63-.565-.762-.847l-.198-.423-5.445-15.66c-.207-.62-.31-1.082-.31-1.383 0-.752.63-1.345 1.89-1.777.545-.188 1.034-.282 1.467-.282.451 0 .79.15 1.016.451.244.301.46.762.649 1.383l3.103 9.424 3.076-9.283c.263-.79.743-1.336 1.439-1.637.301-.132.687-.197 1.157-.197.489 0 .94.16 1.354.48.414.3.677.601.79.902l3.245 9.791 3.104-9.48c.15-.433.273-.753.367-.96.094-.207.263-.404.508-.592.263-.207.583-.31.959-.31s.818.093 1.326.282zm11.109 7.279c.113-1.053.856-1.58 2.23-1.58.733 0 1.278.057 1.636.17.357.112.602.31.733.592.15.282.235.536.254.762.038.207.057.527.057.96V19.3c0 .433-.02.762-.057.987-.019.207-.094.452-.225.734-.264.49-.913.734-1.947.734-1.016 0-1.703-.123-2.06-.367-.339-.264-.536-.64-.593-1.129-.696.997-1.862 1.496-3.499 1.496-1.617 0-3.122-.743-4.514-2.23-1.392-1.485-2.088-3.207-2.088-5.163 0-1.975.696-3.696 2.088-5.164 1.41-1.486 2.953-2.229 4.627-2.229.64 0 1.223.113 1.75.339.526.226.893.442 1.1.649.207.188.376.376.508.564zm-5.135 5.87c0 .62.244 1.184.733 1.692a2.42 2.42 0 001.778.734c.696 0 1.27-.254 1.721-.762.47-.508.706-1.063.706-1.665 0-.62-.226-1.194-.678-1.721-.432-.527-1.025-.79-1.777-.79-.734 0-1.336.263-1.806.79-.451.527-.677 1.1-.677 1.721zm12.407 6.094c-.358-.226-.537-.583-.537-1.072 0-.49.358-1.232 1.073-2.23.206-.32.536-.48.987-.48.47 0 1.1.236 1.89.706.79.452 1.505.678 2.145.678 1.148 0 1.721-.226 1.721-.678 0-.357-.63-.62-1.89-.79-1.185-.169-2.361-.611-3.527-1.326-.546-.338-.997-.865-1.355-1.58-.357-.734-.536-1.599-.536-2.596 0-2.972 2.041-4.458 6.123-4.458 1.336 0 2.709.32 4.12.96.658.3.987.677.987 1.128 0 .451-.207 1.006-.62 1.665-.414.658-.838.987-1.27.987-.226 0-.649-.14-1.27-.423a4.594 4.594 0 00-1.975-.423c-1.11 0-1.665.207-1.665.62 0 .565.64.932 1.919 1.101 1.241.132 2.445.49 3.612 1.072.545.264.996.724 1.354 1.383.376.64.564 1.448.564 2.426 0 .979-.188 1.816-.564 2.512a3.507 3.507 0 01-1.524 1.523c-1.204.583-2.718.875-4.543.875-1.805 0-3.545-.527-5.22-1.58z" fill="#446DF6"/><path d="M113.426 6.998c1.881 0 3.442.714 4.684 2.144 1.26 1.43 1.89 3.179 1.89 5.248v4.966c0 .433-.019.762-.056.988-.019.207-.104.451-.254.733-.245.49-.969.734-2.173.734-1.147 0-1.862-.244-2.144-.734a2.55 2.55 0 01-.283-.761 13.827 13.827 0 01-.028-1.016v-4.938c0-.771-.216-1.373-.649-1.806-.432-.432-.987-.649-1.665-.649a2.69 2.69 0 00-1.749.621c-.508.395-.799.846-.875 1.354v5.474c0 .433-.018.762-.056.988-.019.207-.104.451-.254.733-.245.49-.969.734-2.173.734-1.185 0-1.909-.254-2.172-.762a3.065 3.065 0 01-.254-.733 12.126 12.126 0 01-.028-.988V2.455c0-.433.009-.753.028-.96.037-.225.122-.47.254-.733.263-.508.997-.762 2.201-.762 1.185 0 1.899.254 2.144.762.15.282.235.536.254.762.038.207.056.526.056.959v6.236c.941-1.148 2.041-1.721 3.302-1.721z"/></svg>