<?xml version="1.0" encoding="utf-8"?><svg viewBox="0 0 120 36" xmlns="http://www.w3.org/2000/svg" xmlns:xlink="http://www.w3.org/1999/xlink"><style>:root>svg{display:none}:root>svg:target{display:block}</style><svg fill="none" viewBox="0 0 8 12" id="arrow" xmlns="http://www.w3.org/2000/svg"><path d="M6.5 1l-5 5 5 5"/></svg><svg fill="none" viewBox="0 0 24 22" id="arrow-bottom" xmlns="http://www.w3.org/2000/svg"><path d="M10.94 21.06a1.5 1.5 0 002.12 0l9.547-9.545a1.5 1.5 0 10-2.122-2.122L12 17.88 3.515 9.393a1.5 1.5 0 00-2.122 2.122l9.546 9.546zM10.5 0v20h3V0h-3z" fill="#446DF6"/></svg><svg fill="none" viewBox="0 0 102 24" id="arrow-long" xmlns="http://www.w3.org/2000/svg"><path d="M101.061 13.06a1.501 1.501 0 000-2.12l-9.546-9.547a1.5 1.5 0 10-2.122 2.122L97.88 12l-8.486 8.485a1.5 1.5 0 102.122 2.122l9.546-9.546zM0 13.5h100v-3H0v3z" fill="#446DF6"/></svg><svg fill="none" viewBox="0 0 28 30" id="icon-calendar" xmlns="http://www.w3.org/2000/svg"><path d="M19.687.001c.568.036 1.006.523.991 1.102v1.552c4.513.438 6.822 2.932 6.822 7.417v12.405c0 4.989-2.843 7.523-8.44 7.523H8.94C3.342 30 .5 27.466.5 22.477V10.072c0-2.986 1.017-5.122 3.104-6.369l.147-.083c.302-.142.657-.129.952.043.344.2.547.58.525.982a1.06 1.06 0 01-.632.916c-1.383.822-2.035 2.255-2.035 4.51v.399h19.03c.57 0 1.03.469 1.03 1.048a1.04 1.04 0 01-1.03 1.048H2.561v9.911c0 3.808 1.852 5.387 6.378 5.413h10.122c4.46 0 6.365-1.618 6.365-5.426V10.058c0-3.317-1.448-4.922-4.748-5.307V5.76c-.076.537-.538.93-1.072.909a1.052 1.052 0 01-1.002-.989V1.01l.02-.166c.042-.218.151-.417.314-.569a1.02 1.02 0 01.749-.274zm.593 21.294l.167.011c.284.036.552.166.758.374.247.25.386.589.386.943 0 .733-.584 1.327-1.304 1.327-.72 0-1.304-.594-1.304-1.327s.584-1.327 1.304-1.327h-.006zm-6.254.001l.164.01a1.32 1.32 0 011.14 1.317c0 .733-.584 1.327-1.304 1.327-.72 0-1.304-.594-1.304-1.327s.584-1.327 1.304-1.327zm-6.254 0l.166.01c.285.036.552.166.758.374.247.25.387.589.387.943 0 .733-.584 1.327-1.305 1.327-.72 0-1.304-.594-1.304-1.327s.584-1.327 1.304-1.327h-.006zm12.508-5.373l.167.01c.284.035.552.166.758.374.247.249.386.588.386.943 0 .732-.584 1.326-1.304 1.326-.72 0-1.304-.594-1.304-1.326 0-.733.584-1.327 1.304-1.327h-.006zm-6.254 0l.164.01a1.32 1.32 0 011.14 1.317c0 .732-.584 1.326-1.304 1.326-.72 0-1.304-.594-1.304-1.326 0-.733.584-1.327 1.304-1.327zm-6.254 0l.166.01c.285.035.552.166.758.374.247.249.387.588.387.943 0 .732-.584 1.326-1.305 1.326-.72 0-1.304-.594-1.304-1.326 0-.733.584-1.327 1.304-1.327h-.006zM8.359.16c.53 0 .977.406 1.037.943v1.446h5.895c.57 0 1.03.47 1.03 1.048a1.04 1.04 0 01-1.03 1.048H9.37v1.048c0 .28-.11.55-.307.746a1.021 1.021 0 01-.737.302l-.15-.015a1.044 1.044 0 01-.854-1.046V1.103L7.35.946C7.47.488 7.88.16 8.359.16z" fill="#446DF6"/></svg><svg fill="none" viewBox="0 0 30 30" id="icon-chat" xmlns="http://www.w3.org/2000/svg"><path d="M15.01 0c2.427 0 4.844.599 6.992 1.731 7.313 3.859 10.125 12.947 6.27 20.263C25.641 26.982 20.462 30 14.992 30c-1.069 0-2.148-.115-3.222-.353a1.125 1.125 0 01-.853-1.34 1.125 1.125 0 011.34-.853c5.587 1.242 11.354-1.44 14.027-6.508 3.278-6.219.887-13.948-5.33-17.228a12.786 12.786 0 00-5.946-1.472c-7.044 0-12.763 5.72-12.763 12.752a12.744 12.744 0 001.443 5.899l.288.563c.353.66.431 1.481.203 2.224a25.674 25.674 0 00-.796 2.448c.843-.254 1.872-.627 2.616-.898l.305-.11a1.12 1.12 0 011.437.674 1.123 1.123 0 01-.674 1.438l-.3.11c-1.113.402-2.635.956-3.662 1.186-.088.018-.181.03-.267.028-.69 0-1.11-.28-1.341-.514-.355-.361-.524-.867-.505-1.504a1.15 1.15 0 01.03-.22c.266-1.137.614-2.271 1.034-3.37a.704.704 0 00-.074-.463l-.29-.562A15.01 15.01 0 010 14.997C0 6.727 6.726 0 14.993 0h.017zm-.017 13.214c.985 0 1.784.801 1.784 1.784s-.8 1.784-1.784 1.784-1.783-.8-1.783-1.784c0-.983.8-1.784 1.783-1.784zm6.605 0c.984 0 1.784.801 1.784 1.784s-.8 1.784-1.784 1.784-1.783-.8-1.783-1.784c0-.983.8-1.784 1.783-1.784zm-13.21 0a1.784 1.784 0 11-1.783 1.784c0-.984.8-1.783 1.784-1.783z" fill="#446DF6"/></svg><svg fill="none" viewBox="0 0 28 30" id="icon-document" xmlns="http://www.w3.org/2000/svg"><path d="M19.78 0c4.82 0 7.707 2.927 7.72 7.815v14.37c0 4.888-2.874 7.815-7.707 7.815H15.51a1.094 1.094 0 01-.966-1.093c0-.56.416-1.031.966-1.092h4.271c3.684 0 5.539-1.895 5.539-5.63V7.815c0-3.736-1.855-5.63-5.539-5.63H8.207c-3.684 0-5.552 1.894-5.552 5.63v14.37c0 3.736 1.868 5.63 5.552 5.63.55.061.965.532.965 1.092S8.756 29.94 8.207 30C3.387 30 .5 27.073.5 22.185V7.815C.5 2.914 3.387 0 8.207 0H19.78zm-.392 20.265c.592 0 1.071.486 1.071 1.086 0 .6-.48 1.086-1.07 1.086H8.572A1.079 1.079 0 017.5 21.351c0-.6.48-1.086 1.072-1.086h10.815zm0-6.358a1.08 1.08 0 011.037.509c.221.357.221.81 0 1.168a1.08 1.08 0 01-1.037.509H8.573A1.094 1.094 0 017.607 15c0-.56.416-1.031.966-1.093h10.815zM12.7 7.563c.55.061.966.532.966 1.093 0 .56-.416 1.03-.966 1.092H8.586a1.094 1.094 0 01-.966-1.092c0-.56.416-1.032.966-1.093H12.7z" fill="#446DF6"/></svg><svg fill="none" viewBox="0 0 36 36" id="icon-download" xmlns="http://www.w3.org/2000/svg"><path d="M26.33 10.797c3.678 0 6.67 3.11 6.67 6.934v7.6c0 3.814-2.985 6.919-6.655 6.919H14.924c-.638 0-1.154-.54-1.154-1.2 0-.665.516-1.203 1.154-1.203h11.42c2.396 0 4.346-2.026 4.346-4.516v-7.6c0-2.5-1.956-4.533-4.36-4.533h-1.397c-.637 0-1.153-.536-1.153-1.2 0-.663.516-1.201 1.153-1.201h1.397zm-15.263 0c.637 0 1.155.539 1.155 1.201 0 .663-.518 1.201-1.155 1.201H9.655c-2.395 0-4.345 2.027-4.345 4.516v7.6c0 2.5 1.956 4.533 4.36 4.533.638 0 1.155.538 1.155 1.2 0 .663-.517 1.201-1.155 1.201-3.678 0-6.67-3.11-6.67-6.934v-7.6c0-3.814 2.985-6.917 6.655-6.917h1.412zM18 3.75c.637 0 1.156.515 1.156 1.15v17.932c0 .466-.282.885-.715 1.063-.432.177-.93.077-1.26-.251l-4.362-4.362a1.147 1.147 0 01.003-1.625 1.16 1.16 0 011.633.003l2.39 2.388V4.9c0-.634.517-1.149 1.155-1.149zm3.542 13.913a1.16 1.16 0 011.633-.01c.455.445.458 1.172.01 1.626l-1.093 1.1a1.157 1.157 0 01-1.975-.809c0-.29.11-.584.334-.809l1.09-1.098z" fill="#446DF6"/></svg><svg fill="none" viewBox="0 0 36 36" id="icon-pay" xmlns="http://www.w3.org/2000/svg"><path d="M24.321 3.75C29.107 3.75 33 7.732 33 12.628v10.744c0 4.896-3.893 8.878-8.679 8.878-.552 0-1-.458-1-1.023s.448-1.023 1-1.023c3.683 0 6.679-3.064 6.679-6.832v-8.575h-4.925c-1.618.002-2.936 1.35-2.938 3.006.002 1.656 1.32 3.004 2.938 3.005h2.046c.552 0 1 .459 1 1.023 0 .565-.448 1.024-1 1.024h-2.046c-2.722-.002-4.936-2.268-4.938-5.052.002-2.785 2.216-5.05 4.938-5.052H31v-.123c0-3.768-2.996-6.832-6.679-6.832H11.677c-2.968 0-5.458 2.003-6.326 4.747h13.181c.552 0 1 .458 1 1.023 0 .566-.448 1.023-1 1.023H5.004l-.004.04v10.743c0 3.768 2.995 6.832 6.677 6.832h6.362c.552 0 1 .458 1 1.023s-.448 1.023-1 1.023h-6.362C6.892 32.25 3 28.268 3 23.372V12.628C3 7.732 6.892 3.75 11.677 3.75h12.644zm2.425 12.938c.552 0 1 .458 1 1.023 0 .564-.448 1.023-1 1.023h-.454c-.553 0-1-.459-1-1.023 0-.565.447-1.023 1-1.023h.454z" fill="#446DF6"/></svg><svg fill="none" viewBox="0 0 36 36" id="icon-point" xmlns="http://www.w3.org/2000/svg"><path d="M18.05 3c7.03.028 12.727 5.763 12.7 12.784v.139c-.095 5.017-3.111 9.18-5.624 11.789a30.825 30.825 0 01-2.262 2.13 1.118 1.118 0 11-1.453-1.7 28.888 28.888 0 002.1-1.98c2.236-2.32 4.918-5.989 5-10.28.022-5.894-4.674-10.623-10.47-10.647H18c-5.777 0-10.488 4.683-10.51 10.456a13.68 13.68 0 002.789 7.838c2.015 2.683 5.072 5.525 7.978 7.416a1.117 1.117 0 11-1.222 1.873c-3.112-2.024-6.386-5.068-8.545-7.942a15.91 15.91 0 01-3.24-9.107C5.278 8.679 10.993 3 18 3h.05zm-.054 8.075a4.854 4.854 0 014.852 4.846 4.854 4.854 0 01-4.852 4.845 4.854 4.854 0 01-4.852-4.845 1.119 1.119 0 012.239 0 2.615 2.615 0 002.613 2.61 2.615 2.615 0 002.613-2.61 2.616 2.616 0 00-2.613-2.61 1.118 1.118 0 110-2.236z" fill="#446DF6"/></svg><svg fill="none" viewBox="0 0 36 36" id="icon-services" xmlns="http://www.w3.org/2000/svg"><path d="M27.639 20.991c.402 0 .804.045 1.197.133a1.24 1.24 0 01.949 1.484 1.26 1.26 0 01-1.506.935c-1.743-.394-3.487.978-3.487 2.74 0 1.549 1.276 2.81 2.847 2.81 1.569 0 2.846-1.261 2.846-2.81 0-.159-.013-.316-.038-.467a1.244 1.244 0 011.033-1.43 1.257 1.257 0 011.446 1.022c.049.284.074.577.074.875 0 2.917-2.406 5.292-5.361 5.292-2.957 0-5.361-2.375-5.361-5.292 0-2.919 2.404-5.292 5.36-5.292zm-11.572 4.05a1.25 1.25 0 011.258 1.242 1.25 1.25 0 01-1.258 1.24H5.757a1.25 1.25 0 01-1.257-1.24 1.25 1.25 0 011.257-1.241h10.31zM9.862 4.5c2.957 0 5.361 2.373 5.361 5.292 0 2.917-2.404 5.292-5.361 5.292S4.5 12.709 4.5 9.792c0-.298.026-.59.074-.875a1.255 1.255 0 011.447-1.021 1.244 1.244 0 011.033 1.43c-.025.15-.039.307-.039.466 0 1.549 1.276 2.81 2.847 2.81 1.57 0 2.846-1.261 2.846-2.81 0-1.55-1.275-2.81-2.846-2.81-.215 0-.43.023-.634.07a1.254 1.254 0 01-1.51-.927 1.24 1.24 0 01.94-1.49A5.326 5.326 0 019.862 4.5zm21.88 4.05A1.25 1.25 0 0133 9.791a1.25 1.25 0 01-1.258 1.242H21.434a1.25 1.25 0 01-1.257-1.242 1.25 1.25 0 011.257-1.24h10.308z" fill="#446DF6"/></svg><svg fill="none" viewBox="0 0 30 31" id="icon-star" xmlns="http://www.w3.org/2000/svg"><path d="M23.247 29.88a1.005 1.005 0 01-.528-.136l-7.707-4.059-6.786 3.654a2.282 2.282 0 01-3.093-.92l-.023-.041a2.46 2.46 0 01-.237-1.5l1.32-7.791L.676 13.5a2.401 2.401 0 010-3.34 2.24 2.24 0 011.32-.677l7.565-1.15 3.364-7.009a2.273 2.273 0 014.131 0l3.38 7.034 7.59 1.162c.613.092 1.164.43 1.524.936.672.966.57 2.271-.243 3.122l-5.492 5.52.765 4.198a1.173 1.173 0 01-.937 1.35 1.137 1.137 0 01-1.32-.92l-.779-4.198c-.13-.77.114-1.555.66-2.112l5.505-5.559-7.59-1.177a2.28 2.28 0 01-1.73-1.35l-3.377-7.004-3.42 7.115a2.276 2.276 0 01-1.73 1.35L2.298 11.94l5.464 5.55c.545.547.79 1.323.66 2.083l-1.32 7.791 6.785-3.639a2.207 2.207 0 012.164 0l7.697 4.06c.47.256.708.797.58 1.318-.117.52-.576.89-1.108.9l.027-.125z" fill="#446DF6"/></svg><svg viewBox="0 0 120 23" id="logo" xmlns="http://www.w3.org/2000/svg"><path d="M11.202 9.34h4.966c1.016.037 1.636.3 1.862.79.188.357.282.884.282 1.58v6.207c0 .602-.263 1.176-.79 1.721-1.58 1.637-3.95 2.455-7.11 2.455-2.803 0-5.24-1.053-7.308-3.16C1.034 16.807 0 14.249 0 11.258c0-2.99 1.053-5.483 3.16-7.477C5.267 1.768 7.75.761 10.61.761c2.219 0 4.316.734 6.291 2.202.508.376.762.8.762 1.27 0 .45-.216.978-.649 1.58-.733.996-1.401 1.495-2.003 1.495-.357 0-.931-.254-1.721-.762-.79-.527-1.73-.79-2.822-.79-1.43 0-2.7.508-3.809 1.524-1.11.997-1.665 2.313-1.665 3.95 0 1.618.565 3 1.693 4.148 1.129 1.128 2.408 1.693 3.838 1.693 1.034 0 1.965-.17 2.793-.508v-3.076h-2.23c-.582 0-.996-.075-1.24-.225a1.053 1.053 0 01-.48-.65c-.075-.3-.113-.695-.113-1.184 0-.508.037-.913.113-1.214.094-.3.254-.508.48-.62.338-.17.79-.254 1.354-.254zM34.9 12.613c0 1.147-.292 2.003-.875 2.567-.564.546-1.195.819-1.89.819h-6.688c0 .526.31.968.931 1.326.621.357 1.242.536 1.863.536 1.09 0 1.947-.113 2.567-.339l.31-.113c.452-.207.828-.31 1.13-.31.601 0 1.119.423 1.551 1.27.245.508.367.94.367 1.298 0 1.674-2.003 2.51-6.01 2.51-1.392 0-2.634-.234-3.725-.704-1.072-.49-1.909-1.13-2.51-1.92-1.186-1.523-1.779-3.225-1.779-5.106 0-2.37.762-4.261 2.286-5.672 1.543-1.43 3.461-2.144 5.756-2.144 2.615 0 4.534.922 5.756 2.765.64.978.96 2.05.96 3.217zm-5.954.818c.715 0 1.072-.301 1.072-.903 0-.433-.17-.78-.508-1.044-.32-.263-.79-.395-1.41-.395-.603 0-1.204.254-1.806.762-.602.489-.903 1.015-.903 1.58h3.555zM45.099 11.935l-1.834-.113v3.894c0 .508.075.875.226 1.1.169.227.47.34.903.34.451 0 .79.018 1.015.056.245.019.499.103.762.254.433.244.65.874.65 1.89 0 1.185-.264 1.91-.79 2.173a3.005 3.005 0 01-.763.254c-.207.019-.517.028-.93.028-1.957 0-3.443-.442-4.459-1.326-1.016-.884-1.524-2.38-1.524-4.486v-4.177a7.42 7.42 0 01-1.156.085c-.414 0-.762-.16-1.044-.48-.264-.32-.395-.865-.395-1.636 0-.771.047-1.326.14-1.665.095-.357.226-.611.396-.762.3-.244.677-.366 1.128-.366l.931.112V4.204c0-.432.01-.752.029-.96.037-.206.131-.432.282-.676.244-.47.969-.706 2.172-.706 1.28 0 2.041.348 2.286 1.044.094.301.141.78.141 1.44V7.11c.828-.075 1.448-.112 1.862-.112.433 0 .753.018.96.056.225.019.48.103.761.254.49.245.734.969.734 2.173 0 1.185-.254 1.909-.762 2.172a3.01 3.01 0 01-.762.254c-.206.019-.526.028-.959.028zM73.114 1.242c1.26.451 1.89 1.053 1.89 1.805 0 .245-.112.706-.338 1.383l-5.417 15.66a2.9 2.9 0 01-.198.48c-.094.188-.348.442-.762.761-.395.301-.875.452-1.439.452-.545 0-1.025-.15-1.439-.452-.395-.32-.658-.63-.79-.93l-3.301-9.735-3.189 9.424a2.438 2.438 0 01-.254.48 3.3 3.3 0 01-.451.564c-.433.433-.95.649-1.552.649-.602 0-1.1-.141-1.495-.423-.377-.283-.63-.565-.762-.847l-.198-.423-5.445-15.66c-.207-.62-.31-1.082-.31-1.383 0-.752.63-1.345 1.89-1.777.545-.188 1.034-.282 1.467-.282.451 0 .79.15 1.016.451.244.301.46.762.649 1.383l3.103 9.424 3.076-9.283c.263-.79.743-1.336 1.439-1.637.301-.132.687-.197 1.157-.197.489 0 .94.16 1.354.48.414.3.677.601.79.902l3.245 9.791 3.104-9.48c.15-.433.273-.753.367-.96.094-.207.263-.404.508-.592.263-.207.583-.31.959-.31s.818.093 1.326.282zM84.223 8.521c.113-1.053.856-1.58 2.23-1.58.733 0 1.278.057 1.636.17.357.112.602.31.733.592.15.282.235.536.254.762.038.207.057.527.057.96V19.3c0 .433-.02.762-.057.987-.019.207-.094.452-.225.734-.264.49-.913.734-1.947.734-1.016 0-1.703-.123-2.06-.367-.339-.264-.536-.64-.593-1.129-.696.997-1.862 1.496-3.499 1.496-1.617 0-3.122-.743-4.514-2.23-1.392-1.485-2.088-3.207-2.088-5.163 0-1.975.696-3.696 2.088-5.164 1.41-1.486 2.953-2.229 4.627-2.229.64 0 1.223.113 1.75.339.526.226.893.442 1.1.649.207.188.376.376.508.564zm-5.135 5.87c0 .62.244 1.184.733 1.692a2.42 2.42 0 001.778.734c.696 0 1.27-.254 1.721-.762.47-.508.706-1.063.706-1.665 0-.62-.226-1.194-.678-1.721-.432-.527-1.025-.79-1.777-.79-.734 0-1.336.263-1.806.79-.451.527-.677 1.1-.677 1.721zM91.495 20.485c-.358-.226-.537-.583-.537-1.072 0-.49.358-1.232 1.073-2.23.206-.32.536-.48.987-.48.47 0 1.1.236 1.89.706.79.452 1.505.678 2.145.678 1.148 0 1.721-.226 1.721-.678 0-.357-.63-.62-1.89-.79-1.185-.169-2.361-.611-3.527-1.326-.546-.338-.997-.865-1.355-1.58-.357-.734-.536-1.599-.536-2.596 0-2.972 2.041-4.458 6.123-4.458 1.336 0 2.709.32 4.12.96.658.3.987.677.987 1.128 0 .451-.207 1.006-.62 1.665-.414.658-.838.987-1.27.987-.226 0-.649-.14-1.27-.423a4.594 4.594 0 00-1.975-.423c-1.11 0-1.665.207-1.665.62 0 .565.64.932 1.919 1.101 1.241.132 2.445.49 3.612 1.072.545.264.996.724 1.354 1.383.376.64.564 1.448.564 2.426 0 .979-.188 1.816-.564 2.512a3.507 3.507 0 01-1.524 1.523c-1.204.583-2.718.875-4.543.875-1.805 0-3.545-.527-5.22-1.58zM113.426 6.998c1.881 0 3.442.714 4.684 2.144 1.26 1.43 1.89 3.179 1.89 5.248v4.966c0 .433-.019.762-.056.988-.019.207-.104.451-.254.733-.245.49-.969.734-2.173.734-1.147 0-1.862-.244-2.144-.734a2.55 2.55 0 01-.283-.761 13.827 13.827 0 01-.028-1.016v-4.938c0-.771-.216-1.373-.649-1.806-.432-.432-.987-.649-1.665-.649a2.69 2.69 0 00-1.749.621c-.508.395-.799.846-.875 1.354v5.474c0 .433-.018.762-.056.988-.019.207-.104.451-.254.733-.245.49-.969.734-2.173.734-1.185 0-1.909-.254-2.172-.762a3.065 3.065 0 01-.254-.733 12.126 12.126 0 01-.028-.988V2.455c0-.433.009-.753.028-.96.037-.225.122-.47.254-.733.263-.508.997-.762 2.201-.762 1.185 0 1.899.254 2.144.762.15.282.235.536.254.762.038.207.056.526.056.959v6.236c.941-1.148 2.041-1.721 3.302-1.721z"/></svg></svg>